<?xml version="1.0" encoding="UTF-8"?><svg id="Layer_2" xmlns="http://www.w3.org/2000/svg" viewBox="0 0 75 75"><g id="Layer_1-2"><path d="M53.23,10.28H20.55c-6,0-10.88,4.88-10.88,10.88v32.68c0,6,4.88,10.88,10.88,10.88h32.68c6,0,10.88-4.88,10.88-10.88V21.16c0-6-4.88-10.88-10.88-10.88ZM37.9,56.43c-10.35,0-18.75-8.4-18.75-18.75s8.4-18.75,18.75-18.75,18.75,8.4,18.75,18.75-8.4,18.75-18.75,18.75ZM55.32,21.91c-1.83,0-3.32-1.48-3.32-3.31s1.49-3.32,3.32-3.32,3.32,1.48,3.32,3.32-1.49,3.31-3.32,3.31ZM53.23,10.28H20.55c-6,0-10.88,4.88-10.88,10.88v32.68c0,6,4.88,10.88,10.88,10.88h32.68c6,0,10.88-4.88,10.88-10.88V21.16c0-6-4.88-10.88-10.88-10.88ZM37.9,56.43c-10.35,0-18.75-8.4-18.75-18.75s8.4-18.75,18.75-18.75,18.75,8.4,18.75,18.75-8.4,18.75-18.75,18.75ZM55.32,21.91c-1.83,0-3.32-1.48-3.32-3.31s1.49-3.32,3.32-3.32,3.32,1.48,3.32,3.32-1.49,3.31-3.32,3.31ZM52.84,0h-30.68C9.92,0,0,9.92,0,22.16v30.68c0,12.24,9.92,22.16,22.16,22.16h30.68c12.24,0,22.16-9.92,22.16-22.16v-30.68c0-12.24-9.92-22.16-22.16-22.16ZM66.36,53.84c0,7.24-5.89,13.12-13.13,13.12H20.55c-7.23,0-13.12-5.88-13.12-13.12V21.16c0-7.24,5.89-13.12,13.12-13.12h32.68c7.24,0,13.13,5.88,13.13,13.12v32.68ZM53.23,10.28H20.55c-6,0-10.88,4.88-10.88,10.88v32.68c0,6,4.88,10.88,10.88,10.88h32.68c6,0,10.88-4.88,10.88-10.88V21.16c0-6-4.88-10.88-10.88-10.88ZM37.9,56.43c-10.35,0-18.75-8.4-18.75-18.75s8.4-18.75,18.75-18.75,18.75,8.4,18.75,18.75-8.4,18.75-18.75,18.75ZM55.32,21.91c-1.83,0-3.32-1.48-3.32-3.31s1.49-3.32,3.32-3.32,3.32,1.48,3.32,3.32-1.49,3.31-3.32,3.31Z" style="fill:#1f3886;"/></g><circle cx="37.93" cy="37.84" r="15.22" style="fill:#1f3886;"/></svg>