<?xml version="1.0" encoding="UTF-8"?><svg id="Layer_2" xmlns="http://www.w3.org/2000/svg" viewBox="0 0 72.22 72.22"><circle cx="36.11" cy="36.11" r="35.19" style="fill:none; stroke:#1f3886; stroke-miterlimit:10; stroke-width:1.84px;"/><path d="M36.12,24.84c-6.24,0-11.27,5.03-11.27,11.27s5.03,11.27,11.27,11.27,11.27-5.03,11.27-11.27-5.03-11.27-11.27-11.27ZM36.12,43.44c-4.03,0-7.33-3.29-7.33-7.33s3.29-7.33,7.33-7.33,7.33,3.29,7.33,7.33-3.3,7.33-7.33,7.33h0ZM50.48,24.38c0,1.46-1.18,2.63-2.63,2.63s-2.63-1.18-2.63-2.63,1.18-2.63,2.63-2.63,2.63,1.18,2.63,2.63ZM57.94,27.05c-.17-3.52-.97-6.64-3.55-9.21-2.57-2.57-5.69-3.37-9.21-3.55-3.63-.21-14.51-.21-18.14,0-3.51.17-6.63.97-9.21,3.54-2.58,2.57-3.37,5.69-3.55,9.21-.21,3.63-.21,14.51,0,18.14.17,3.52.97,6.64,3.55,9.21,2.58,2.57,5.69,3.37,9.21,3.55,3.63.21,14.51.21,18.14,0,3.52-.17,6.64-.97,9.21-3.55,2.57-2.57,3.37-5.69,3.55-9.21.21-3.63.21-14.5,0-18.13h0ZM53.25,49.07c-.77,1.92-2.25,3.4-4.18,4.18-2.89,1.15-9.76.88-12.96.88s-10.07.26-12.96-.88c-1.92-.77-3.4-2.25-4.18-4.18-1.15-2.89-.88-9.76-.88-12.96s-.26-10.07.88-12.96c.77-1.92,2.25-3.4,4.18-4.18,2.89-1.15,9.76-.88,12.96-.88s10.07-.26,12.96.88c1.92.77,3.4,2.25,4.18,4.18,1.15,2.89.88,9.76.88,12.96s.26,10.07-.88,12.96Z" style="fill:#1f3886;"/></svg>