<?xml version="1.0" encoding="UTF-8"?><svg id="Layer_2" xmlns="http://www.w3.org/2000/svg" viewBox="0 0 72.05 72.05"><circle cx="36.02" cy="36.02" r="35.11" style="fill:none; stroke:#1f3886; stroke-miterlimit:10; stroke-width:1.84px;"/><path d="M23.75,58.25h-9.22v-29.68h9.22v29.68ZM19.13,24.52c-2.95,0-5.34-2.44-5.34-5.39,0-2.95,2.39-5.34,5.34-5.34,2.95,0,5.34,2.39,5.34,5.34,0,2.95-2.39,5.39-5.34,5.39ZM58.25,58.25h-9.2v-14.45c0-3.44-.07-7.86-4.79-7.86s-5.53,3.74-5.53,7.61v14.7h-9.21v-29.68h8.84v4.05h.13c1.23-2.33,4.24-4.79,8.72-4.79,9.33,0,11.05,6.14,11.05,14.12v16.31h0Z" style="fill:#1f3886;"/></svg>