<?xml version="1.0" encoding="UTF-8"?><svg id="Layer_1" xmlns="http://www.w3.org/2000/svg" viewBox="0 0 281 450.25"><path d="M174.34,242.49c21.5,0,30.5-21.38,30.5-42.75s-9-42.75-30.5-42.75-30.65,21.38-30.65,42.75,9.15,42.75,30.65,42.75M212.79,199.74c0,27.41-18.91,43.81-38.46,43.81s-38.59-15.27-38.59-43.81,19.17-43.81,38.59-43.81,38.46,15.27,38.46,43.81" style="fill:#db001c;"/><path d="M107.92,200.74c-.92-1.36-.91-3.15.03-4.49l27.99-40.33-33.42,38.26h-.13l-32.92-38.26,27.19,40.85c.89,1.34.89,3.09,0,4.42l-28.44,42.36,34.05-40.26h.13l34.43,40.26-28.9-42.81Z" style="fill:#db001c;"/><polygon points="85.31 291.33 91.54 291.33 91.54 292.22 86.31 292.22 86.31 297.43 91.06 297.43 91.06 298.32 86.31 298.32 86.31 301.76 85.31 301.76 85.31 291.33" style="fill:#001a70;"/><polygon points="102.78 291.33 109.07 291.33 109.07 292.22 103.78 292.22 103.78 297.43 108.5 297.43 108.5 298.31 103.78 298.31 103.78 300.87 109.28 300.87 109.28 301.76 102.78 301.76 102.78 291.33" style="fill:#001a70;"/><polygon points="122.89 292.22 119.65 292.22 119.65 291.33 127.1 291.33 127.1 292.22 123.88 292.22 123.88 301.76 122.89 301.76 122.89 292.22" style="fill:#001a70;"/><polygon points="144.71 291.33 145.71 291.33 145.71 301.76 144.71 301.76 144.71 298.32 139.02 298.32 139.02 301.76 138.02 301.76 138.02 291.33 139.02 291.33 139.02 297.43 144.71 297.43 144.71 291.33" style="fill:#001a70;"/><rect x="157.64" y="294.84" width="1.01" height="6.92" style="fill:#001a70;"/><rect x="157.64" y="291.33" width="1.01" height="2.38" style="fill:#001a70;"/><polygon points="169.66 291.33 170.77 291.33 174.13 297.48 177.47 291.33 178.51 291.33 174.62 298.49 174.62 301.76 173.61 301.76 173.61 298.49 169.66 291.33" style="fill:#001a70;"/><polygon points="189.45 291.33 195.74 291.33 195.74 292.22 190.45 292.22 190.45 297.43 195.17 297.43 195.17 298.31 190.45 298.31 190.45 300.87 195.95 300.87 195.95 301.76 189.45 301.76 189.45 291.33" style="fill:#001a70;"/><path d="M34.16,267.56c0-5.02,3.76-8.65,8.56-8.65,2.86,0,5.12,1.17,6.64,3.16l-1.24.89c-1.27-1.64-3.06-2.59-5.42-2.59-3.93,0-6.84,3.08-6.84,7.19s2.96,7.19,6.96,7.19c2.44,0,4.4-1.02,5.75-2.81l1.27.9c-1.67,2.19-4.03,3.38-7.06,3.38-4.85,0-8.63-3.63-8.6-8.65" style="fill:#001a70;"/><path d="M86.96,270.35c3.85,0,5.4-2.06,5.4-4.87s-1.54-4.92-5.4-4.92h-1.92v9.8h1.92ZM85.04,276.02h-1.62v-16.91h3.63c4.58,0,6.96,2.71,6.96,6.37s-2.39,6.32-6.96,6.32h-2.01v4.23Z" style="fill:#001a70;"/><polygon points="104.82 259.11 115.01 259.11 115.01 260.55 106.43 260.55 106.43 269.01 114.09 269.01 114.09 270.42 106.43 270.42 106.43 274.58 115.36 274.58 115.36 276.02 104.82 276.02 104.82 259.11" style="fill:#001a70;"/><path d="M166.15,270.37c3.85,0,5.4-2.06,5.4-4.9s-1.57-4.92-5.4-4.92h-1.97v9.82h1.97ZM172.96,276.02h-1.97l-3.36-4.33c-.45.07-.9.1-1.39.1h-2.06v4.23h-1.62v-16.91h3.68c4.6,0,6.99,2.71,6.99,6.37,0,2.71-1.34,4.92-3.96,5.84l3.68,4.7Z" style="fill:#001a70;"/><polygon points="185.72 262.71 185.72 276.02 184.2 276.02 184.2 258.76 184.35 258.76 195.74 272.41 195.74 259.11 197.26 259.11 197.26 276.37 197.11 276.37 185.72 262.71" style="fill:#001a70;"/><polygon points="210.57 262.71 210.57 276.02 209.05 276.02 209.05 258.76 209.2 258.76 220.59 272.41 220.59 259.11 222.11 259.11 222.11 276.37 221.96 276.37 210.57 262.71" style="fill:#001a70;"/><path d="M65.92,258.71h-.12l-7.11,17.31h1.62l1.19-2.94.57-1.44,3.8-9.37s3.78,9.37,3.76,9.37l.6,1.44,1.17,2.94h1.67l-7.14-17.31Z" style="fill:#001a70;"/><path d="M145.38,258.71h-.12l-7.11,17.31h1.62l1.19-2.94.57-1.44,3.8-9.37s3.78,9.37,3.76,9.37l.6,1.44,1.17,2.94h1.67l-7.14-17.31Z" style="fill:#001a70;"/><path d="M239.71,258.71h-.12l-7.11,17.31h1.62l1.19-2.94.57-1.44,3.8-9.37s3.78,9.37,3.76,9.37l.6,1.44,1.17,2.94h1.67l-7.14-17.31Z" style="fill:#001a70;"/><line y1=".12" x2="281" y2=".12" style="fill:none; stroke:#fff9ec; stroke-miterlimit:10; stroke-width:.25px;"/><line y1="450.12" x2="281" y2="450.12" style="fill:none; stroke:#fff9ec; stroke-miterlimit:10; stroke-width:.25px;"/></svg>