<?xml version="1.0" encoding="UTF-8"?><svg id="Layer_2" xmlns="http://www.w3.org/2000/svg" viewBox="0 0 71.88 71.88"><circle cx="35.94" cy="35.94" r="35.03" style="fill:none; stroke:#1f3886; stroke-miterlimit:10; stroke-width:1.83px;"/><path d="M19.27,20.55c-2.12,0-3.85,1.72-3.85,3.85,0,1.21.57,2.35,1.54,3.08l17.44,13.08c.91.68,2.16.68,3.08,0l17.44-13.08c.97-.73,1.54-1.87,1.54-3.08,0-2.12-1.72-3.85-3.85-3.85H19.27ZM15.42,29.53v16.67c0,2.83,2.3,5.13,5.13,5.13h30.78c2.83,0,5.13-2.3,5.13-5.13v-16.67l-17.44,13.08c-1.83,1.37-4.33,1.37-6.16,0l-17.44-13.08Z" style="fill:#1f3886;"/></svg>