<?xml version="1.0" encoding="UTF-8"?><svg id="Layer_2" xmlns="http://www.w3.org/2000/svg" viewBox="0 0 72.97 72.97"><circle cx="36.49" cy="36.49" r="35.07" style="fill:none; stroke:#1f3886; stroke-miterlimit:10; stroke-width:1.84px;"/><path d="M29.17,17.91c-.62-1.49-2.25-2.29-3.8-1.86l-7.06,1.93c-1.4.39-2.37,1.65-2.37,3.1,0,19.86,16.1,35.96,35.96,35.96,1.44,0,2.71-.97,3.1-2.37l1.93-7.06c.43-1.56-.37-3.19-1.86-3.8l-7.71-3.21c-1.31-.55-2.83-.17-3.72.93l-3.24,3.96c-5.65-2.67-10.23-7.25-12.9-12.9l3.96-3.23c1.1-.9,1.48-2.41.93-3.72l-3.21-7.71h0Z" style="fill:#1f3886;"/></svg>