<?xml version="1.0" encoding="UTF-8"?><svg id="Layer_2" xmlns="http://www.w3.org/2000/svg" viewBox="0 0 72.57 72.57"><circle cx="36.29" cy="36.29" r="35.36" style="fill:none; stroke:#1f3886; stroke-miterlimit:10; stroke-width:1.85px;"/><path d="M60.42,24.12c-.58-2.19-2.29-3.9-4.45-4.48-3.93-1.06-19.68-1.06-19.68-1.06,0,0-15.75,0-19.68,1.06-2.17.58-3.87,2.3-4.45,4.48-1.05,3.96-1.05,12.2-1.05,12.2,0,0,0,8.25,1.05,12.2.58,2.19,2.29,3.83,4.45,4.41,3.93,1.06,19.68,1.06,19.68,1.06,0,0,15.75,0,19.68-1.06,2.17-.58,3.87-2.23,4.45-4.41,1.05-3.96,1.05-12.2,1.05-12.2,0,0,0-8.25-1.05-12.2h0ZM31.14,43.81v-14.98l13.16,7.49-13.16,7.49h0Z" style="fill:#1f3886;"/></svg>